<?xml version="1.0" encoding="UTF-8"?>
<svg xmlns="http://www.w3.org/2000/svg" viewBox="0 0 512 512">
  <defs>
    <style>
      .cls-1 {
        fill: #f2de8b;
      }

      .cls-1, .cls-2 {
        stroke-width: 0px;
      }

      .cls-2 {
        fill: #252e45;
      }
    </style>
  </defs>
  <g id="Background">
    <rect class="cls-2" x="0" y="0" width="512" height="512" rx="256" ry="256"/>
  </g>
  <g id="Logo">
    <path class="cls-1" d="M406.64,256c-124.05,18.91-135.96,34.25-150.64,194.07-14.68-159.82-26.58-175.16-150.64-194.07,124.05-18.91,135.96-34.25,150.64-194.07,14.68,159.82,26.58,175.16,150.64,194.07Z"/>
    <g>
      <path class="cls-1" d="M164.72,158.96l-5.82,1.51c-1.7-4.97-4.03-6.62-7.97-6.62-7.25,0-10.47,6.55-11.1,20.23,1.97-5.04,5.91-7.34,11.19-7.34,8.5,0,14.32,5.9,14.32,15.62,0,10.44-6.18,16.56-15.48,16.56-10.65,0-16.47-7.71-16.47-23.33,0-16.71,6.18-26.43,17.54-26.43,6.8,0,11.37,3.17,13.78,9.79ZM150.22,194.17c5.46,0,8.5-3.53,8.5-11.45s-3.04-11.59-8.5-11.59c-5.73,0-9.13,4.9-9.13,11.81s3.4,11.23,9.13,11.23Z"/>
      <path class="cls-1" d="M207.69,172.06c0,18.36-5.82,26.86-17.45,26.86-7.52,0-11.9-3.02-13.34-9.43l5.64-1.44c1.07,4.39,3.76,6.05,7.97,6.05,7.07,0,10.47-5.76,10.74-19.95-2.42,4.97-5.82,7.06-11.1,7.06-8.95,0-14.14-7.2-14.14-15.77s5.37-16.27,15.93-16.27,15.75,7.2,15.75,22.9ZM191.22,176.53c5.37,0,9.04-4.39,9.04-11.23s-3.04-11.3-8.86-11.3c-5.37,0-8.77,4.32-8.77,11.3s3.13,11.23,8.59,11.23Z"/>
    </g>
    <g>
      <path class="cls-1" d="M338.87,323.67l-5.82,1.51c-1.7-4.97-4.03-6.62-7.97-6.62-7.25,0-10.47,6.55-11.1,20.23,1.97-5.04,5.91-7.34,11.19-7.34,8.5,0,14.32,5.9,14.32,15.62,0,10.44-6.18,16.56-15.49,16.56-10.65,0-16.47-7.71-16.47-23.33,0-16.71,6.18-26.43,17.54-26.43,6.8,0,11.37,3.17,13.78,9.79ZM324.37,358.88c5.46,0,8.5-3.53,8.5-11.45s-3.04-11.59-8.5-11.59c-5.73,0-9.13,4.9-9.13,11.81s3.4,11.23,9.13,11.23Z"/>
      <path class="cls-1" d="M381.48,327.56c0,3.46-1.07,6.98-2.95,10.37-3.76,6.77-13.25,15.05-20.5,19.8h23.45v5.04h-30.7v-5.04c16.83-12.89,23.81-21.1,23.81-29.59,0-5.83-3.31-9.58-8.32-9.58-5.37,0-8.59,3.6-9.4,10.58l-6.09-1.37c1.34-9.22,7.7-13.9,16.02-13.9,8.86,0,14.68,5.33,14.68,13.68Z"/>
    </g>
  </g>
</svg>